<?xml version="1.0" encoding="utf-8"?>
<!-- Generator: Adobe Illustrator 25.0.0, SVG Export Plug-In . SVG Version: 6.00 Build 0)  -->
<svg version="1.1" id="Layer_1" xmlns="http://www.w3.org/2000/svg" xmlns:xlink="http://www.w3.org/1999/xlink" x="0px" y="0px"
	 viewBox="0 0 512 512" style="enable-background:new 0 0 512 512;" xml:space="preserve">
<style type="text/css">
	.st0{fill:#CDCDCD;}
</style>
<g>
	<g>
		<path class="st0" d="M113.6,193.1l-87.2-50.3C9.5,176.8,0,215.2,0,256c0,40.3,9.6,78.7,26.8,113.1l86.8-50.1
			c-8.6-19.3-13.4-40.6-13.4-62.9C100.2,233.6,105,212.3,113.6,193.1z"/>
	</g>
</g>
<g>
	<g>
		<path class="st0" d="M423.9,62.8C378.9,23.6,320.1,0,255.8,0c-88,0.1-166.5,45-212.7,113.8l87.3,50.4c28.4-38.7,74-64,125.6-64
			c37.6,0,72,13.4,99,35.7c6.6,5.4,16.2,4.9,22.3-1.1l47.5-47.5C431.6,80.4,431.2,69.1,423.9,62.8z"/>
	</g>
</g>
<g>
	<g>
		<path class="st0" d="M510.2,226.4c-1-8.5-8.1-14.9-16.7-14.9l-209.8,0c-9.2,0-16.7,7.5-16.7,16.7v66.7c0,9.2,7.5,16.7,16.7,16.7
			h117.5c-10.8,28.2-29.6,52.4-53.6,70l49.9,86.5C448,434,486.2,382.5,503,321.8C512.2,288.7,513.8,256.8,510.2,226.4z"/>
	</g>
</g>
<g>
	<g>
		<path class="st0" d="M318.9,398.4c-19.3,8.6-40.5,13.4-62.9,13.4c-51.6,0-97.3-25.3-125.6-64L43.5,398
			C89.2,466.1,166.9,512,256,512c40.3,0,78.6-9.8,112.9-27.1L318.9,398.4z"/>
	</g>
</g>
</svg>
