<svg xmlns="http://www.w3.org/2000/svg" width="176" height="176" viewBox="0 0 176 176"><g transform="translate(-326 -456)"><circle cx="4" cy="4" r="4" transform="translate(326 456)" fill="#fff" opacity="0.2"/><circle cx="4" cy="4" r="4" transform="translate(350 456)" fill="#fff" opacity="0.2"/><circle cx="4" cy="4" r="4" transform="translate(374 456)" fill="#fff" opacity="0.2"/><circle cx="4" cy="4" r="4" transform="translate(398 456)" fill="#fff" opacity="0.2"/><circle cx="4" cy="4" r="4" transform="translate(422 456)" fill="#fff" opacity="0.2"/><circle cx="4" cy="4" r="4" transform="translate(446 456)" fill="#fff" opacity="0.2"/><circle cx="4" cy="4" r="4" transform="translate(470 456)" fill="#fff" opacity="0.2"/><circle cx="4" cy="4" r="4" transform="translate(494 456)" fill="#fff" opacity="0.2"/><circle cx="4" cy="4" r="4" transform="translate(326 480)" fill="#fff" opacity="0.2"/><circle cx="4" cy="4" r="4" transform="translate(350 480)" fill="#fff" opacity="0.2"/><circle cx="4" cy="4" r="4" transform="translate(374 480)" fill="#fff" opacity="0.2"/><circle cx="4" cy="4" r="4" transform="translate(398 480)" fill="#fff" opacity="0.2"/><circle cx="4" cy="4" r="4" transform="translate(422 480)" fill="#fff" opacity="0.2"/><circle cx="4" cy="4" r="4" transform="translate(446 480)" fill="#fff" opacity="0.2"/><circle cx="4" cy="4" r="4" transform="translate(470 480)" fill="#fff" opacity="0.2"/><circle cx="4" cy="4" r="4" transform="translate(494 480)" fill="#fff" opacity="0.2"/><circle cx="4" cy="4" r="4" transform="translate(326 504)" fill="#fff" opacity="0.2"/><circle cx="4" cy="4" r="4" transform="translate(350 504)" fill="#fff" opacity="0.2"/><circle cx="4" cy="4" r="4" transform="translate(374 504)" fill="#fff" opacity="0.2"/><circle cx="4" cy="4" r="4" transform="translate(398 504)" fill="#fff" opacity="0.2"/><circle cx="4" cy="4" r="4" transform="translate(422 504)" fill="#fff" opacity="0.2"/><circle cx="4" cy="4" r="4" transform="translate(446 504)" fill="#fff" opacity="0.2"/><circle cx="4" cy="4" r="4" transform="translate(470 504)" fill="#fff" opacity="0.2"/><circle cx="4" cy="4" r="4" transform="translate(494 504)" fill="#fff" opacity="0.2"/><circle cx="4" cy="4" r="4" transform="translate(326 528)" fill="#fff" opacity="0.2"/><circle cx="4" cy="4" r="4" transform="translate(350 528)" fill="#fff" opacity="0.2"/><circle cx="4" cy="4" r="4" transform="translate(374 528)" fill="#fff" opacity="0.2"/><circle cx="4" cy="4" r="4" transform="translate(398 528)" fill="#fff" opacity="0.2"/><circle cx="4" cy="4" r="4" transform="translate(422 528)" fill="#fff" opacity="0.2"/><circle cx="4" cy="4" r="4" transform="translate(446 528)" fill="#fff" opacity="0.2"/><circle cx="4" cy="4" r="4" transform="translate(470 528)" fill="#fff" opacity="0.2"/><circle cx="4" cy="4" r="4" transform="translate(494 528)" fill="#fff" opacity="0.2"/><circle cx="4" cy="4" r="4" transform="translate(326 552)" fill="#fff" opacity="0.2"/><circle cx="4" cy="4" r="4" transform="translate(350 552)" fill="#fff" opacity="0.2"/><circle cx="4" cy="4" r="4" transform="translate(374 552)" fill="#fff" opacity="0.2"/><circle cx="4" cy="4" r="4" transform="translate(398 552)" fill="#fff" opacity="0.2"/><circle cx="4" cy="4" r="4" transform="translate(422 552)" fill="#fff" opacity="0.2"/><circle cx="4" cy="4" r="4" transform="translate(446 552)" fill="#fff" opacity="0.2"/><circle cx="4" cy="4" r="4" transform="translate(470 552)" fill="#fff" opacity="0.2"/><circle cx="4" cy="4" r="4" transform="translate(494 552)" fill="#fff" opacity="0.2"/><circle cx="4" cy="4" r="4" transform="translate(326 576)" fill="#fff" opacity="0.2"/><circle cx="4" cy="4" r="4" transform="translate(350 576)" fill="#fff" opacity="0.2"/><circle cx="4" cy="4" r="4" transform="translate(374 576)" fill="#fff" opacity="0.2"/><circle cx="4" cy="4" r="4" transform="translate(398 576)" fill="#fff" opacity="0.2"/><circle cx="4" cy="4" r="4" transform="translate(422 576)" fill="#fff" opacity="0.2"/><circle cx="4" cy="4" r="4" transform="translate(446 576)" fill="#fff" opacity="0.2"/><circle cx="4" cy="4" r="4" transform="translate(470 576)" fill="#fff" opacity="0.2"/><circle cx="4" cy="4" r="4" transform="translate(494 576)" fill="#fff" opacity="0.2"/><circle cx="4" cy="4" r="4" transform="translate(326 600)" fill="#fff" opacity="0.2"/><circle cx="4" cy="4" r="4" transform="translate(350 600)" fill="#fff" opacity="0.2"/><circle cx="4" cy="4" r="4" transform="translate(374 600)" fill="#fff" opacity="0.2"/><circle cx="4" cy="4" r="4" transform="translate(398 600)" fill="#fff" opacity="0.2"/><circle cx="4" cy="4" r="4" transform="translate(422 600)" fill="#fff" opacity="0.2"/><circle cx="4" cy="4" r="4" transform="translate(446 600)" fill="#fff" opacity="0.2"/><circle cx="4" cy="4" r="4" transform="translate(470 600)" fill="#fff" opacity="0.2"/><circle cx="4" cy="4" r="4" transform="translate(494 600)" fill="#fff" opacity="0.2"/><circle cx="4" cy="4" r="4" transform="translate(326 624)" fill="#fff" opacity="0.2"/><circle cx="4" cy="4" r="4" transform="translate(350 624)" fill="#fff" opacity="0.2"/><circle cx="4" cy="4" r="4" transform="translate(374 624)" fill="#fff" opacity="0.2"/><circle cx="4" cy="4" r="4" transform="translate(398 624)" fill="#fff" opacity="0.2"/><circle cx="4" cy="4" r="4" transform="translate(422 624)" fill="#fff" opacity="0.2"/><circle cx="4" cy="4" r="4" transform="translate(446 624)" fill="#fff" opacity="0.2"/><circle cx="4" cy="4" r="4" transform="translate(470 624)" fill="#fff" opacity="0.2"/><circle cx="4" cy="4" r="4" transform="translate(494 624)" fill="#fff" opacity="0.2"/></g></svg>